<?xml version="1.0" encoding="utf-8"?>
<!--Designed by Vexels.com - 2018 All Rights Reserved - https://vexels.com/terms-and-conditions/-->
<svg version="1.1" id="Layer_1" xmlns="http://www.w3.org/2000/svg" xmlns:xlink="http://www.w3.org/1999/xlink" x="0px" y="0px"
	 viewBox="0 0 1200 1200" enable-background="new 0 0 1200 1200" xml:space="preserve">
<g>
	<g>
		<path fill="#405E32" d="M501.223,1150c-8.501,0-17.112-0.738-25.763-2.253c-38.913-6.826-72.843-28.444-95.542-60.858
			c-22.677-32.396-31.409-71.679-24.578-110.6c5.985-34.106,28.058-73.12,51.431-114.42
			c32.221-56.955,68.743-121.506,70.506-185.697c2.115-76.947-33.846-106.564-71.921-137.914
			c-33.386-27.489-67.906-55.908-68.166-115.249l0,0c-0.163-37.28,16.705-71.285,48.776-98.339
			c52.498-44.282,139.199-63.647,220.866-49.299c62.462,10.964,118.068,40.932,156.583,84.393
			c37.406,42.214,54.224,91.848,47.766,140.46h0.004l-0.02,0.134c-0.281,2.102-0.603,4.196-0.972,6.299
			c-0.277,1.566-0.523,2.964-0.771,4.221l-0.432,2.622c-7.249,41.317-33.808,85.39-61.922,132.042
			c-25.926,43.025-52.737,87.509-65.791,132.177c-22.945,78.505-24.364,120.961-25.734,162.019
			c-0.976,29.214-1.897,56.813-10.139,94.946l-0.591,2.161C629.132,1103.866,568.655,1150,501.223,1150z M362.92,422.891
			c0.205,47.272,27.354,69.627,58.788,95.508c39.257,32.322,83.749,68.957,81.29,158.476
			c-1.938,70.591-40.136,138.098-73.835,197.666c-22.246,39.315-43.26,76.453-48.478,106.195
			c-5.646,32.163,1.57,64.618,20.314,91.395c18.745,26.777,46.77,44.634,78.908,50.271c63.764,11.189,125.3-29.222,140.016-92.032
			l0.54-1.943c7.546-35.053,8.43-61.519,9.363-89.545c1.428-42.657,2.898-86.764,26.752-168.385
			c13.996-47.867,41.677-93.807,68.451-138.232c23.677-39.291,46.2-76.663,55.585-110.04l-21.094-2.722l25.11-16.114
			c0.097-0.511,0.176-0.938,0.222-1.19c7.505-42.766-6.947-87.291-40.698-125.366c-34.667-39.131-85.017-66.16-141.771-76.118
			c-74.485-13.083-152.91,4.061-199.827,43.629C376.497,366.322,362.794,393.484,362.92,422.891L362.92,422.891z"/>
	</g>
	<g>
		<path fill="#405E32" d="M401.234,277.967c-40.003,0-73.321-47.792-76.386-110.391c-1.437-29.282,4.137-57.348,15.691-79.016
			c12.689-23.804,31.157-37.473,51.996-38.494c40.995-2.094,75.717,46.451,78.845,110.333c1.436,29.289-4.137,57.347-15.687,79.015
			c-12.69,23.804-31.158,37.473-51.997,38.495C402.876,277.95,402.051,277.967,401.234,277.967z M395.002,75.736
			c-0.406,0-0.804,0.009-1.21,0.025c-15.432,0.755-25.763,15.923-30.55,24.901c-9.397,17.631-13.908,40.949-12.698,65.657
			c2.341,47.825,26.074,86.772,51.896,85.893c15.433-0.754,25.763-15.922,30.547-24.901c9.397-17.623,13.907-40.94,12.697-65.657
			C443.376,114.583,420.314,75.736,395.002,75.736z"/>
	</g>
	<g>
		<path fill="#405E32" d="M546.079,232.395c-0.545,0-1.089-0.017-1.633-0.042c-28.703-1.315-49.638-36.158-47.666-79.326
			c1.981-43.16,25.802-75.774,54.71-74.644c28.708,1.315,49.643,36.158,47.67,79.326c-0.887,19.424-6.365,37.658-15.427,51.351
			C573.869,223.969,560.225,232.395,546.079,232.395z M549.861,102.97c-11.936,0-26.053,21.699-27.377,50.679
			c-1.344,29.357,11.11,52.18,23.143,52.732c5.548,0.05,11.529-3.908,16.646-11.656c6.437-9.732,10.511-24.189,11.182-38.813
			c1.345-29.357-11.11-52.942-23.142-52.942C550.162,102.97,550.011,102.97,549.861,102.97z"/>
	</g>
	<g>
		<path fill="#405E32" d="M643.404,250.226c-3.509,0-6.994-0.528-10.406-1.616c-25.495-8.159-35.936-44.333-23.774-82.342
			c5.444-17.019,14.691-31.903,26.036-41.903c12.966-11.424,27.945-15.562,41.112-11.357c13.154,4.204,22.953,16.273,26.877,33.109
			c3.439,14.724,2.332,32.213-3.112,49.232C689.604,228.266,666.073,250.226,643.404,250.226z M665.842,137.113
			c-3.94,0-8.727,2.287-13.573,6.559c-7.794,6.868-14.549,17.966-18.54,30.437l0,0c-7.927,24.776-2.784,46.828,7.108,49.994
			c9.866,3.2,26.869-11.818,34.792-36.593c3.991-12.471,4.925-25.429,2.563-35.546c-1.817-7.798-5.339-13.066-9.665-14.448
			C667.689,137.247,666.793,137.113,665.842,137.113z"/>
	</g>
	<g>
		<path fill="#405E32" d="M736.771,282.691c-4.459,0-8.789-0.854-12.844-2.58c-11.977-5.092-20.105-17.212-22.304-33.251
			c-1.905-13.871,0.607-29.884,7.073-45.078v0.009c6.466-15.202,16.265-28.109,27.586-36.359
			c13.079-9.515,27.455-12.069,39.429-6.969c11.977,5.093,20.11,17.212,22.309,33.252c1.905,13.879-0.612,29.884-7.082,45.078
			c-6.462,15.194-16.262,28.101-27.581,36.35C754.704,279.441,745.487,282.691,736.771,282.691z M762.787,181.605
			c-3.187,0-7.215,1.608-11.353,4.623c-7.509,5.469-14.456,14.817-19.059,25.63v0.008c-4.606,10.813-6.525,22.296-5.26,31.501
			c0.922,6.742,3.502,11.626,6.89,13.074c3.417,1.432,8.706-0.093,14.201-4.096c7.509-5.469,14.456-14.816,19.059-25.629
			c4.611-10.822,6.525-22.304,5.264-31.509c-0.925-6.743-3.501-11.626-6.893-13.074C764.792,181.78,763.834,181.605,762.787,181.605
			z"/>
	</g>
	<g>
		<path fill="#405E32" d="M813.648,338.313c-5.955,0-11.562-1.499-16.445-4.514c-10.185-6.29-15.905-18.351-15.696-33.092
			c0.18-12.547,4.539-26.358,12.282-38.896c17.506-28.36,46.422-41.216,65.879-29.214c10.189,6.29,15.91,18.351,15.7,33.092
			c-0.18,12.547-4.539,26.358-12.282,38.896c-7.739,12.539-18.13,22.631-29.265,28.419
			C827.007,336.538,820.122,338.313,813.648,338.313z M843.076,253.744c-6.558,0-18.426,7.052-27.393,21.584l0,0
			c-5.256,8.518-8.337,17.898-8.45,25.746c-0.076,5.302,1.26,9.456,3.488,10.83c2.219,1.365,6.533,0.704,11.24-1.742
			c6.964-3.618,13.975-10.578,19.231-19.096s8.337-17.898,8.45-25.746c0.076-5.302-1.26-9.457-3.488-10.83
			C845.35,253.996,844.307,253.744,843.076,253.744z"/>
	</g>
</g>
</svg>
